<?xml version="1.0" encoding="UTF-8"?>
<svg width="1887px" height="698px" viewBox="0 0 1887 698" version="1.1" xmlns="http://www.w3.org/2000/svg" xmlns:xlink="http://www.w3.org/1999/xlink">
    <!-- Generator: Sketch 64 (93537) - https://sketch.com -->
    <title>Group 3</title>
    <desc>Created with Sketch.</desc>
    <defs>
        <polygon id="path-1" points="0 0 697.231939 0 697.231939 748.988454 0 748.988454"></polygon>
    </defs>
    <g id="Page-1" stroke="none" stroke-width="1" fill="none" fill-rule="evenodd">
        <g id="large-logo-1" transform="translate(0.000000, -165.000000)">
            <g id="Group-3" transform="translate(-9.000000, 165.000000)">
                <text id="UKRAINIAN-INSTITUTE" font-family="Montserrat-Medium, Montserrat" font-size="132" font-weight="400" line-spacing="180" letter-spacing="26.4">
                    <tspan x="914" y="248" fill="#990500">UKRAINIAN</tspan>
                    <tspan x="1936.34" y="248" fill="#FFFFFF"> </tspan>
                    <tspan x="914" y="428" fill="#990500">INSTITUTE</tspan>
                    <tspan x="1843.148" y="428" fill="#000000"> </tspan>
                    <tspan x="914" y="608" fill="#000000">LONDON</tspan>
                </text>
                <g id="Group-2">
                    <g id="Group">
                        <g id="uku_logo___WHITE">
                            <mask id="mask-2" fill="white">
                                <use xlink:href="#path-1"></use>
                            </mask>
                            <g id="Clip-2"></g>
                            <path d="M212.908424,75.4282858 C233.107881,75.4282858 246.622258,96.0135832 246.622258,108.593487 C246.622258,117.35665 244.268291,135.008496 224.720129,135.008496 C207.614324,135.008496 202.659827,114.213999 209.614731,102.712638 C184.395647,102.712638 183.041884,141.744742 225.027168,141.744742 C243.007569,141.744742 261.532268,131.317275 261.532268,109.653435 C261.532268,95.0745068 251.181325,69.6450632 212.83399,69.6450632 C170.783576,69.6450632 143.908342,91.0950546 109.947946,116.524498 C74.8849997,142.772147 43.2041369,149.922144 0,145.510345 L0,151.916519 C0.0325647635,151.921168 0.0604774179,151.925817 0.0930421814,151.930466 C0.0930421814,223.462979 0.0604774179,601.52024 0.0604774179,604.193354 C0.0604774179,608.521473 16.7568969,614.941594 16.7568969,610.618124 C16.7662011,545.900887 16.7894616,191.790073 16.7941137,153.906245 C53.9737694,156.686283 89.5112306,148.127672 119.424292,125.445724 C150.732986,101.703828 173.35154,75.4282858 212.908424,75.4282858 Z M598.679916,184.686565 C598.745046,251.705003 598.568266,302.666166 598.633395,369.684605 C598.707829,449.004014 598.624091,611.292213 598.614787,644.624775 C567.222355,636.572892 534.541289,629.622797 502.576647,628.641881 C441.280458,626.754431 372.117552,644.062258 324.103135,685.595467 C323.921703,685.74888 323.749574,685.911592 323.568142,686.069654 C278.689246,646.82835 215.63456,629.646042 158.139144,628.911517 C121.49448,628.441979 84.0868715,635.601274 48.0097656,643.671751 C47.9539403,578.271127 47.8934629,510.006785 47.8329855,444.768873 C47.7632038,357.630026 48.0144177,189.595795 48.0144177,184.691213 C48.0097656,180.358445 30.8900042,173.942973 30.8900042,178.266444 C30.9504816,245.312776 31.006307,302.721953 31.0714365,369.768285 C31.1458702,456.907132 30.8900042,644.206374 30.8900042,649.110956 C30.8900042,653.016026 41.8364169,652.197821 43.8786928,651.709687 C76.9365798,643.764729 111.636661,640.375686 145.545884,639.77133 C204.911448,638.711383 271.450564,651.658549 315.524646,695.11175 C318.869512,698.412464 328.276077,698.412464 331.630247,695.11175 C376.323059,651.030949 442.317878,637.851338 502.576647,639.464503 C536.095093,640.36174 570.567221,644.51785 603.038943,653.183386 C605.067262,653.722658 615.618245,654.457183 615.609152,650.589304 C615.543812,583.575514 615.469378,513.349339 615.408901,446.330901 C615.315858,358.866631 615.618245,183.366279 615.609152,178.266444 C615.609152,173.933676 598.670612,180.363094 598.679916,184.686565 Z M312.272821,75.8280906 L334.21682,75.8280906 C334.21682,75.8280906 330.109008,67.0881721 329.448408,44.2156195 C352.415871,44.8525178 361.185096,48.878459 361.185096,48.878459 L361.185096,26.9496316 C361.185096,26.9496316 352.415871,31.0685506 329.439104,31.7193956 C330.090399,8.76316294 334.21682,0 334.21682,0 L312.272821,0 C312.272821,0 316.296896,8.76316294 316.943539,31.7147467 C294.045858,31.054604 285.313849,26.9496316 285.313849,26.9496316 L285.313849,48.878459 C285.313849,48.878459 294.045858,44.8664645 316.934235,44.2202684 C316.287592,67.0881721 312.272821,75.8280906 312.272821,75.8280906 Z M209.131641,282.190183 C199.679916,263.248651 186.792348,256.049792 177.011794,253.771672 C170.291878,252.210125 137.046424,253.792383 129.171391,253.821377 L129.171391,254.343273 C139.268127,258.535014 159.381501,280.467096 167.18065,297.039382 C172.425051,308.189744 203.904103,371.583608 214.827128,391.904437 C225.691132,412.121716 249.569176,419.47383 259.695423,420.695731 C264.349618,421.259048 269.189306,421.24248 274.012131,421.138929 C224.907001,484.793741 179.684583,543.602371 184.82359,536.627182 C168.757343,556.049189 153.433069,563.852785 138.429192,568.322043 L138.50086,571.088923 C177.728472,571.088923 205.619916,542.699407 210.472252,536.502921 C219.013374,525.596939 262.460959,468.469976 307.447295,409.980283 L307.447295,548.1379 L346.249116,548.1379 L346.249116,366.84926 C354.541509,373.39782 364.225101,383.686637 371.223256,396.029905 C374.966848,402.657163 393.920889,446.343219 406.420606,463.284147 C416.913624,477.512041 433.14007,479.748741 448.430618,479.777735 C420.007989,516.592153 390.868681,554.284682 370.670992,580.13513 C363.744505,588.999087 356.763212,597.581386 349.023084,605.558948 C345.945581,608.731748 329.765509,626.762031 315.178992,626.762031 C299.175981,626.762031 288.931693,614.468468 288.931693,602.278455 C288.931693,589.057076 296.203873,575.293089 312.029822,571.838631 C327.063209,568.558139 339.432238,576.411439 341.738257,578.747548 C341.738257,578.747548 356.927627,574.555807 356.936058,574.423262 C348.289542,566.835052 324.854153,562.374079 311.060198,564.689477 C289.715824,568.264054 270.917766,582.259994 270.917766,603.52935 C270.917766,617.840085 285.592814,633.194613 314.942909,633.194613 C350.224574,633.194613 373.617806,606.755996 381.391661,598.46364 C385.185841,594.429297 472.498371,480.473597 522.480378,416.052508 L522.396063,416.052508 C523.589122,414.486818 524.588256,413.169651 525.342876,412.163136 C532.433779,402.661305 557.580765,372.449293 545.953709,359.194777 L516.789107,359.165783 L516.789107,360.772893 C531.645432,369.172943 509.411533,400.983781 497.835066,416.052508 L497.636926,416.052508 C485.229955,432.102898 471.043935,450.489397 456.419476,469.426786 C453.101676,466.183572 450.926346,462.190649 448.662484,457.965772 C441.744428,445.079898 422.229692,407.536482 412.12874,386.913284 C405.425688,373.232138 392.356843,359.894782 379.136231,359.215488 C368.25958,358.656313 357.193219,359.650401 346.249116,359.74981 L346.249116,359.733242 C366.741907,333.327761 385.409276,309.535906 398.60881,293.257703 C405.69128,284.509723 412.51659,275.807305 420.256718,267.829743 C423.33422,264.656943 439.514293,246.62666 454.096594,246.62666 C470.103821,246.62666 480.348109,258.924365 480.348109,271.110236 C480.348109,284.331615 473.075929,298.099744 457.24998,301.554202 C442.216593,304.834694 429.847564,296.977252 427.541545,294.641143 C427.541545,294.641143 412.352175,298.828742 412.343744,298.969571 C420.986044,306.557782 444.421434,311.014612 458.219604,308.699214 C479.563978,305.128779 498.362036,291.128697 498.362036,269.859341 C498.362036,255.548606 483.682772,240.194078 454.336893,240.194078 C419.04258,240.194078 395.661996,266.636837 387.888141,274.925051 C385.17741,277.807908 368.727529,298.78318 346.249116,327.719444 L346.249116,171.713793 L307.447295,171.713793 L307.447295,377.825656 C298.923035,388.864183 290.187988,400.171941 281.499314,411.434138 C275.019697,407.242397 269.551861,401.576092 265.458362,394.016876 C256.095167,376.71559 223.186973,310.356029 209.131641,282.190183 Z M645.856954,145.510345 C602.648165,149.922144 570.967303,142.772147 535.904357,116.524498 C501.939308,91.0950546 475.073378,69.6450632 433.018312,69.6450632 C394.666325,69.6450632 384.320035,95.0745068 384.320035,109.653435 C384.320035,131.317275 402.844733,141.744742 420.825134,141.744742 C462.815071,141.744742 461.461307,102.712638 436.237572,102.712638 C443.187823,114.213999 438.237979,135.008496 421.136826,135.008496 C401.584011,135.008496 399.230044,117.35665 399.230044,108.593487 C399.230044,96.0135832 412.739769,75.4282858 432.948531,75.4282858 C472.500762,75.4282858 495.114664,101.703828 526.42801,125.445724 C556.33642,148.127672 591.883185,156.686283 629.053536,153.906245 C629.062841,191.790073 629.081449,545.900887 629.090753,610.618124 C629.090753,614.941594 645.791825,608.521473 645.791825,604.193354 C645.791825,601.52024 645.763912,223.462979 645.754608,151.930466 L645.856954,151.916519 L645.856954,145.510345 L645.856954,145.510345 Z" id="Fill-1" fill="#990500" mask="url(#mask-2)"></path>
                        </g>
                    </g>
                </g>
            </g>
        </g>
    </g>
</svg>